<svg id="Capa_1" enable-background="new 0 0 512 512" height="512" viewBox="0 0 512 512" width="512" xmlns="http://www.w3.org/2000/svg"><g><g><path clip-rule="evenodd" d="m442.78 238.095v243.957c0 3.018-.453 5.924-1.288 8.674-3.742 12.281-15.193 21.274-28.665 21.274h-377.394c-13.544 0-25.068-9.117-28.716-21.531l-1.217-17.585v-234.964c.093-16.39 13.534-29.762 29.933-29.762h377.394c14.894 0 27.325 10.992 29.582 25.27.248 1.515.371 3.081.371 4.667z" fill="#fcd79f" fill-rule="evenodd"/></g><g><path clip-rule="evenodd" d="m442.784 242.983-46.712 34.234v205.971c0 13.646-9.301 25.266-21.851 28.811h38.604c16.485 0 29.959-13.467 29.959-29.944z" fill="#fac574" fill-rule="evenodd"/></g><g><path clip-rule="evenodd" d="m396.071 208.153v31.047 38.018l46.712-34.234v-4.886c0-16.476-13.474-29.944-29.959-29.944h-16.753z" fill="#fb8627" fill-rule="evenodd"/></g><g><path clip-rule="evenodd" d="m52.213 281.746v-73.593h-16.783c-16.455 0-29.929 13.467-29.929 29.944v9.415z" fill="#fb8627" fill-rule="evenodd"/></g><g><path clip-rule="evenodd" d="m382.239 47.977h-316.194c-7.602 0-13.832 6.227-13.832 13.825v146.352 73.593l4.71 3.426 119.24 87.388 34.401 25.206c12.461 9.117 8.526 9.117 21.016 0l37.71-27.649 115.901-84.945 10.881-7.955v-69.064-146.352c-.001-7.598-6.231-13.825-13.833-13.825z" fill="#f8f6f6" fill-rule="evenodd"/></g><g><path clip-rule="evenodd" d="m52.213 247.84v33.906l123.95 90.814 34.401 25.206c12.461 9.117 8.526 9.117 21.016 0l37.71-27.649 79.474-58.219 36.428-26.726 10.881-7.955v-69.064-146.351c0-7.598-6.23-13.825-13.832-13.825h-30.466c-7.602 0 13.802 6.227 13.802 13.825v165.003 38.584l-133.997 98.472c-12.49 9.147-8.555 9.147-21.016 0z" fill="#e2e2e2" fill-rule="evenodd"/></g><path d="m442.78 252.353v-14.258c0-1.587-.124-3.152-.371-4.667l-61.793 45.513-115.783 84.866-.113.082-37.704 27.64c-1.814 1.319-3.309 2.472-4.504 3.389-.474.371-.979.762-1.443 1.113-.464-.35-.969-.742-1.443-1.102-1.196-.927-2.68-2.071-4.494-3.4l-34.117-24.992-.392-.288-119.133-87.307-55.99-41.022v19.151l157.012 115.061-157.012 100.752 1.216 17.585 169.164-108.54 30.118 22.077c1.67 1.216 3.041 2.277 4.185 3.152 3.886 3.008 6.7 5.172 10.874 5.172 4.175 0 6.988-2.163 10.885-5.161 1.144-.886 2.515-1.937 4.205-3.173l33.417-24.498 171.927 111.229c.835-2.751 1.288-5.656 1.288-8.674v-8.89l-159.877-103.441 106.857-78.314z" fill="#fca863"/><g><path d="m250.33 165.766h-130.329c-4.269 0-7.731-3.459-7.731-7.726 0-4.268 3.461-7.726 7.731-7.726h130.329c4.269 0 7.731 3.459 7.731 7.726s-3.461 7.726-7.731 7.726z" fill="#838383"/></g><g><path d="m171.244 115.531h-51.243c-4.269 0-7.731-3.459-7.731-7.726 0-4.268 3.461-7.726 7.731-7.726h51.243c4.269 0 7.731 3.459 7.731 7.726s-3.461 7.726-7.731 7.726z" fill="#838383"/></g><g><path d="m220.789 215.999h-100.788c-4.269 0-7.731-3.459-7.731-7.726 0-4.268 3.461-7.726 7.731-7.726h100.788c4.269 0 7.731 3.459 7.731 7.726-.001 4.267-3.462 7.726-7.731 7.726z" fill="#838383"/></g><g><path d="m261.386 266.232h-141.385c-4.269 0-7.731-3.459-7.731-7.726s3.461-7.726 7.731-7.726h141.385c4.269 0 7.73 3.459 7.73 7.726s-3.461 7.726-7.73 7.726z" fill="#838383"/></g><g><path clip-rule="evenodd" d="m433.87 23.665-153.074 170.366 19.436 32.446 32.851 14.451 153.044-170.367z" fill="#fb8627" fill-rule="evenodd"/></g><g><path clip-rule="evenodd" d="m426.776 31.56 52.257 46.927 22.268-24.789c8.108-9.028 6.558-23.717-3.428-32.655l-7.989-7.181-7.989-7.181c-9.986-8.938-24.772-8.909-32.851.089z" fill="#fd4755" fill-rule="evenodd"/></g><g><path clip-rule="evenodd" d="m294.419 260.086-9.48-20.737-19.019-4.857-14.905 40.461c-.954 3.397 1.461 5.572 4.74 4.261z" fill="#9c9c9c" fill-rule="evenodd"/></g><g><path clip-rule="evenodd" d="m480.732 5.698c8.973 9.028 10.106 22.942 2.325 31.612l-22.268 24.79 18.244 16.387 22.268-24.789c8.108-9.028 6.558-23.717-3.428-32.655l-7.989-7.181-7.989-7.181c-.388-.327-.776-.655-1.163-.983z" fill="#f92c3d" fill-rule="evenodd"/></g><g><path clip-rule="evenodd" d="m460.789 62.1-145.95 162.47 18.244 16.358 145.95-162.441z" fill="#f2671f" fill-rule="evenodd"/></g><g><path clip-rule="evenodd" d="m294.419 260.086-18.244-16.387-16.694 8.283-8.466 22.972c-.954 3.397 1.461 5.572 4.74 4.261z" fill="#838383" fill-rule="evenodd"/></g><g><path clip-rule="evenodd" d="m333.083 240.928-52.287-46.897-14.875 40.461 28.498 25.594z" fill="#fcd79f" fill-rule="evenodd"/></g><g><path clip-rule="evenodd" d="m333.083 240.928-18.244-16.358-38.664 19.129 18.244 16.387z" fill="#fac574" fill-rule="evenodd"/></g></g></svg>