<svg id="Capa_1" enable-background="new 0 0 512 512" height="512" viewBox="0 0 512 512" width="512" xmlns="http://www.w3.org/2000/svg"><g><g><path clip-rule="evenodd" d="m27.451 46.803h406.344c10.913 0 19.839 8.911 19.839 19.806v367.946c0 10.895-8.926 19.806-19.839 19.806h-406.344c-10.913 0-19.839-8.911-19.839-19.806v-367.947c-.001-10.894 8.926-19.805 19.839-19.805z" fill="#f8f6f6" fill-rule="evenodd"/></g><g><path clip-rule="evenodd" d="m59.643 56.95h86.095v-35.07c0-9.831-8.062-17.88-17.939-17.88h-50.246c-9.848 0-17.91 8.049-17.91 17.88z" fill="#fcd79f" fill-rule="evenodd"/></g><g><path clip-rule="evenodd" d="m333.447 4c-9.876 0-17.939 8.049-17.939 17.88v35.07h86.095v-35.07c0-9.831-8.062-17.88-17.939-17.88z" fill="#fcd79f" fill-rule="evenodd"/></g><g><path clip-rule="evenodd" d="m7.611 66.608v69.651h446.023v-69.651c0-10.895-8.926-19.806-19.839-19.806-135.448 0-270.896 0-406.344 0-10.913.001-19.84 8.912-19.84 19.806z" fill="#fd4755" fill-rule="evenodd"/></g><g><path clip-rule="evenodd" d="m138.798 205.853h-64.067c-3.686 0-6.709 3.018-6.709 6.698v63.959c0 3.679 3.023 6.669 6.709 6.669h64.067c3.686 0 6.709-2.99 6.709-6.669v-63.959c0-3.68-3.023-6.698-6.709-6.698z" fill="#8dcafc" fill-rule="evenodd"/></g><g><path clip-rule="evenodd" d="m189.706 212.551v63.959c0 3.679 3.023 6.669 6.709 6.669h64.038c3.686 0 6.709-2.99 6.709-6.669v-63.959c0-3.68-3.023-6.698-6.709-6.698h-64.038c-3.685 0-6.709 3.018-6.709 6.698z" fill="#8dcafc" fill-rule="evenodd"/></g><g><path clip-rule="evenodd" d="m311.362 212.551v63.959c0 3.679 3.023 6.669 6.709 6.669h64.067c3.686 0 6.709-2.99 6.709-6.669v-63.959c0-3.68-3.023-6.698-6.709-6.698h-64.067c-3.686 0-6.709 3.018-6.709 6.698z" fill="#8dcafc" fill-rule="evenodd"/></g><g><path clip-rule="evenodd" d="m260.454 327.333h-64.038c-3.686 0-6.709 2.99-6.709 6.669v63.959c0 3.679 3.023 6.698 6.709 6.698h64.038c3.686 0 6.709-3.018 6.709-6.698v-63.959c0-3.68-3.024-6.669-6.709-6.669z" fill="#fd4755" fill-rule="evenodd"/></g><g><path clip-rule="evenodd" d="m145.507 397.961v-63.959c0-3.679-3.023-6.669-6.709-6.669h-64.067c-3.686 0-6.709 2.99-6.709 6.669v63.959c0 3.679 3.023 6.698 6.709 6.698h64.067c3.686 0 6.709-3.018 6.709-6.698z" fill="#8dcafc" fill-rule="evenodd"/></g><g><path clip-rule="evenodd" d="m115.935 283.179h22.863c3.686 0 6.709-2.99 6.709-6.669v-63.959c0-3.68-3.023-6.698-6.709-6.698h-22.863c3.686 0 6.709 3.018 6.709 6.698v63.959c0 3.68-3.023 6.669-6.709 6.669z" fill="#64b9fc" fill-rule="evenodd"/></g><g><path clip-rule="evenodd" d="m244.329 212.551v63.959c0 3.679-3.023 6.669-6.709 6.669h22.834c3.686 0 6.709-2.99 6.709-6.669v-63.959c0-3.68-3.023-6.698-6.709-6.698h-22.834c3.685 0 6.709 3.018 6.709 6.698z" fill="#64b9fc" fill-rule="evenodd"/></g><g><path clip-rule="evenodd" d="m365.984 212.551v63.959c0 3.679-3.023 6.669-6.709 6.669h22.863c3.686 0 6.709-2.99 6.709-6.669v-63.959c0-3.68-3.023-6.698-6.709-6.698h-22.863c3.686 0 6.709 3.018 6.709 6.698z" fill="#64b9fc" fill-rule="evenodd"/></g><g><path clip-rule="evenodd" d="m267.163 397.961v-63.959c0-3.679-3.023-6.669-6.709-6.669h-22.834c3.686 0 6.709 2.99 6.709 6.669v63.959c0 3.679-3.023 6.698-6.709 6.698h22.834c3.685 0 6.709-3.018 6.709-6.698z" fill="#f92c3d" fill-rule="evenodd"/></g><g><path clip-rule="evenodd" d="m145.507 397.961v-63.959c0-3.679-3.023-6.669-6.709-6.669h-22.863c3.686 0 6.709 2.99 6.709 6.669v63.959c0 3.679-3.023 6.698-6.709 6.698h22.863c3.686 0 6.709-3.018 6.709-6.698z" fill="#64b9fc" fill-rule="evenodd"/></g><g><path clip-rule="evenodd" d="m413.005 66.608v69.651h40.629v-69.651c0-10.895-8.926-19.806-19.839-19.806h-32.192-8.437c2.995 0 5.874.661 8.437 1.897 6.738 3.163 11.402 10.033 11.402 17.909z" fill="#f92c3d" fill-rule="evenodd"/></g><g><path clip-rule="evenodd" d="m453.634 136.259h-40.629v184.864c1.785-.086 3.542-.144 5.327-.144 12.497 0 24.418 2.443 35.302 6.87z" fill="#e2e2e2" fill-rule="evenodd"/></g><g><path clip-rule="evenodd" d="m145.737 46.803v-24.923c0-9.831-8.062-17.88-17.939-17.88h-25.108c9.848 0 17.91 8.049 17.91 17.88v24.923z" fill="#fac574" fill-rule="evenodd"/></g><g><path clip-rule="evenodd" d="m358.556 4c9.848 0 17.939 8.049 17.939 17.88v24.923h16.672 8.437v-24.923c0-9.831-8.062-17.88-17.939-17.88z" fill="#fac574" fill-rule="evenodd"/></g><g><path clip-rule="evenodd" d="m418.332 320.98c51.743 0 93.668 41.854 93.668 93.51 0 51.627-41.924 93.51-93.668 93.51-51.714 0-93.639-41.883-93.639-93.51.001-51.656 41.925-93.51 93.639-93.51z" fill="#8dcafc" fill-rule="evenodd"/></g><g><path clip-rule="evenodd" d="m396.132 323.624c25.253 7.445 46.042 25.21 57.502 48.379 6.162 12.476 9.617 26.504 9.617 41.308 0 44.01-30.436 80.919-71.439 90.865 8.408 2.472 17.305 3.823 26.52 3.823 51.744.001 93.668-41.882 93.668-93.509 0-39.181-24.13-72.727-58.366-86.64-10.884-4.427-22.805-6.87-35.302-6.87-1.785 0-3.542.057-5.327.144-5.758.316-11.431 1.178-16.873 2.5z" fill="#64b9fc" fill-rule="evenodd"/></g><g><path d="m453.634 143.865h-446.023c-4.204 0-7.611-3.405-7.611-7.606 0-4.2 3.407-7.606 7.611-7.606h446.023c4.204 0 7.612 3.405 7.612 7.606s-3.408 7.606-7.612 7.606z" fill="#fcd79f"/></g><g><path d="m180.118 162.952c-4.204 0-7.611-3.405-7.611-7.606v-31.103c0-4.2 3.407-7.606 7.611-7.606s7.611 3.405 7.611 7.606v31.103c0 4.201-3.407 7.606-7.611 7.606z" fill="#fac574"/></g><g><path d="m273.094 164.073c-4.204 0-7.611-3.405-7.611-7.606v-31.103c0-4.2 3.407-7.606 7.611-7.606s7.612 3.405 7.612 7.606v31.103c0 4.201-3.408 7.606-7.612 7.606z" fill="#fac574"/></g><g><path d="m87.112 161.86c-4.204 0-7.611-3.405-7.611-7.606v-31.103c0-4.2 3.407-7.606 7.611-7.606s7.611 3.405 7.611 7.606v31.103c0 4.201-3.407 7.606-7.611 7.606z" fill="#fac574"/></g><g><path d="m366.1 164.073c-4.204 0-7.611-3.405-7.611-7.606v-31.103c0-4.2 3.407-7.606 7.611-7.606s7.612 3.405 7.612 7.606v31.103c0 4.201-3.408 7.606-7.612 7.606z" fill="#fac574"/></g><g><path d="m425.876 439.199h-35.186c-4.204 0-7.611-3.405-7.611-7.606 0-4.2 3.407-7.606 7.611-7.606h35.186c4.204 0 7.611 3.405 7.611 7.606.001 4.201-3.407 7.606-7.611 7.606z" fill="#f8f6f6"/></g><g><path d="m425.876 439.199c-4.204 0-7.612-3.405-7.612-7.606v-59.446c0-4.2 3.407-7.606 7.612-7.606s7.611 3.405 7.611 7.606v59.446c.001 4.201-3.407 7.606-7.611 7.606z" fill="#f8f6f6"/></g></g></svg>