<svg id="Capa_1" enable-background="new 0 0 511.785 511.785" height="512" viewBox="0 0 511.785 511.785" width="512" xmlns="http://www.w3.org/2000/svg"><g><g><path d="m446.548 260.182c-4.266 0-7.723-3.458-7.723-7.723 0-33.529-6.081-64.188-18.074-91.128-1.735-3.897.018-8.462 3.915-10.196 3.892-1.735 8.461.017 10.196 3.914 12.879 28.93 19.409 61.703 19.409 97.41 0 4.266-3.457 7.723-7.723 7.723zm-381.311 0c-4.266 0-7.723-3.458-7.723-7.723 0-86.546 37.127-136.808 68.273-163.732 21.687-18.748 47.137-32.198 75.643-39.977 27.198-7.422 56.419-9.175 84.505-5.068 4.221.616 7.142 4.538 6.524 8.759-.616 4.221-4.541 7.146-8.759 6.524-54.281-7.934-108.162 7.171-147.812 41.447-41.167 35.588-62.928 88.165-62.928 152.047 0 4.266-3.457 7.723-7.723 7.723z" fill="#9c9c9c"/></g><g><path clip-rule="evenodd" d="m99.553 363.807c22.083-35.583 16.504-72.709.058-110.445h-34.374c-18.887 0-34.345 15.508-34.345 34.42v41.635c0 18.912 15.458 34.391 34.345 34.391h34.316z" fill="#31a7fb" fill-rule="evenodd"/></g><g><path clip-rule="evenodd" d="m99.553 363.807c.058-79.168.116-177.277 0-31.103h-34.316c-18.887 0-34.345-15.479-34.345-34.391v31.103c0 18.912 15.458 34.391 34.345 34.391z" fill="#1785f8" fill-rule="evenodd"/></g><g><path clip-rule="evenodd" d="m411.767 362.905h34.781c18.887 0 34.345-15.479 34.345-34.42v-41.606c0-18.941-15.458-34.42-34.345-34.42h-34.374c-19.468 17.865-47.653 64.97-.407 110.446z" fill="#31a7fb" fill-rule="evenodd"/></g><g><path clip-rule="evenodd" d="m99.611 240.385v-1.92zm2.732 140.646c10.664 37.766 58.636 85.744 109.456 106.401 26.529 3.811-.029-.175 0-.145 5.782 4.102 97.253 6.517 104.11-7.216 44.573-23.247 83.916-65.231 93.475-99.04 1.831-6.43 2.789-21.996 2.789-28.106 0-30.666 0-81.874 0-112.54h-85.513c-41.348 0-95.16-9.747-140.314-52.488-5.288-5.004-16.33-8.699-21.647 2.182-7.903 16.177-16.853 50.306-48.263 50.306h-16.825c0 23.945-.029 68.461-.029 92.406-.029 10.154-.029 20.279-.029 30.404 0 6.111 1.133 11.988 2.79 17.836z" fill="#ffe5c1" fill-rule="evenodd"/></g><g><path clip-rule="evenodd" d="m189.658 237.388c45.154 42.77 86.734 48.094 128.082 48.153l35.478.058c13.134 0 29.347-2.939 29.318 9.049l-.058 48.473c0 6.139-.959 21.676-2.789 28.106-8.63 30.492-41.464 67.617-80.516 91.679-9.56 12.976 1.424 21.385 16.737 17.166 44.573-23.247 83.916-65.231 93.475-99.04 1.133-4.015 1.947-11.522 2.383-18.126 1.656-24.644.407-52.342.407-77.277 0-8.234 0-16.468 0-24.731h-7.903-77.61c-41.348 0-95.16-9.718-140.314-52.459-5.288-5.033-16.33-8.729-21.647 2.182-7.903 16.148-16.853 50.277-48.263 50.277h-16.827v.058.815 23.858h16.824c31.41 0 53.609-29.881 61.484-46.058 5.317-10.883 6.451-7.187 11.739-2.183z" fill="#fed1a3" fill-rule="evenodd"/></g><g><path d="m206.511 329.458c-1.995 0-3.989-.768-5.501-2.302-2.781-2.822-6.46-4.375-10.361-4.375-.004 0-.008 0-.012 0-3.891.003-7.555 1.554-10.318 4.366-2.99 3.044-7.88 3.086-10.922.098-3.043-2.989-3.086-7.879-.098-10.922 5.688-5.789 13.26-8.982 21.324-8.988h.026c8.068 0 15.653 3.188 21.361 8.979 2.994 3.038 2.959 7.928-.079 10.922-1.503 1.482-3.462 2.222-5.42 2.222z" fill="#9c9c9c"/></g><g><path d="m340.432 329.458c-1.999 0-3.997-.772-5.51-2.311-2.765-2.816-6.433-4.366-10.326-4.366s-7.56 1.551-10.328 4.366c-2.988 3.044-7.879 3.086-10.921.097-3.043-2.989-3.086-7.879-.097-10.922 5.694-5.796 13.274-8.988 21.345-8.988h.001c8.07 0 15.65 3.192 21.344 8.988 2.989 3.043 2.945 7.933-.098 10.922-1.501 1.477-3.456 2.214-5.41 2.214z" fill="#9c9c9c"/></g><g><path d="m254.175 432.361c-10.191 0-19.78-3.972-27-11.184-3.018-3.014-3.021-7.904-.007-10.922 3.015-3.017 7.905-3.021 10.922-.006 4.304 4.298 10.016 6.666 16.085 6.666 6.065 0 11.767-2.365 16.056-6.659 3.015-3.018 7.905-3.021 10.922-.007 3.018 3.014 3.021 7.904.007 10.922-7.208 7.215-16.79 11.19-26.985 11.19z" fill="#ffbc85"/></g><g><path d="m407.902 494.108h-91.18c-4.266 0-7.723-3.458-7.723-7.723s3.457-7.723 7.723-7.723h91.18c17.051 0 30.923-14.221 30.923-31.701v-84.056c0-4.265 3.457-7.723 7.723-7.723s7.723 3.458 7.723 7.723v84.056c0 25.997-20.801 47.147-46.369 47.147z" fill="#9c9c9c"/></g><g><path clip-rule="evenodd" d="m186.345 208.438c45.154 42.741 98.967 52.459 140.314 52.459h85.514v-20.367c-1.279-27.117-10.431-51.062-24.611-71.167-18.538-21.53-30.742-37.387-107.887-67.152-37.483-7.041-75.228-1.193-101.873 20.338-6.363 5.15-12.029 14.344-21.182 18.243-45.909 20.308-57.067 76.928-57.009 91.708v28.397h16.824c31.41 0 40.36-34.129 48.263-50.277 5.318-10.91 16.359-7.215 21.647-2.182z" fill="#9c9c9c" fill-rule="evenodd"/></g><g><path clip-rule="evenodd" d="m412.174 240.53c0-.058 0-.116 0-.145zm-59.45-71.109c14.151 20.076 23.245 43.934 24.553 70.963 0 .029.029.087.029.145v20.367h26.965 7.903v-8.438-11.928-.145c-1.308-27.059-10.431-50.946-24.611-71.021-18.538-21.53-30.742-37.387-107.887-67.152-15.865-2.968-31.759-3.637-46.839-1.804 3.981.466 7.962 1.047 11.942 1.804 15.894 6.139 29.028 11.667 40.011 16.788 42.452 19.756 53.174 33.256 67.876 50.364.029.028.029.028.058.057z" fill="#838383" fill-rule="evenodd"/></g><g><path clip-rule="evenodd" d="m279.675 102.212c3.429 17.574 12.407 34.361 27.778 47.425.174.175.116.204.058.495l-1.918 35.409c-.087 1.804.785 2.328 2.557 1.658l33.125-17.05c1.569-.815 1.366-.727 3.138-.727h16.533 23.216c1.162 0 2.266-.029 3.4-.058 15.807-.524 29.231-4.597 40.302-11.202 59.014-35.263 50.5-141.956-25.628-156.503-5.637-1.106-11.681-1.659-18.073-1.659h-23.216c-5.986 0-11.71.553-17.143 1.658-28.563 5.674-49.048 25.4-58.985 49.607-6.538 15.945-8.485 33.809-5.144 50.947z" fill="#f8f6f6" fill-rule="evenodd"/></g><g><path clip-rule="evenodd" d="m370.768 1.658c65.058 12.453 80.748 92.203 47.072 137.126-5.724 7.623-12.872 14.257-21.444 19.377-3.894 2.328-8.078 4.422-12.552 6.168-.145.058-.32.116-.465.175-5.898 2.299-12.349 4.015-19.265 4.917h20.049c1.162 0 2.266-.029 3.4-.058 15.807-.524 29.231-4.597 40.302-11.202 59.014-35.263 50.5-141.956-25.628-156.503-5.638-1.105-11.682-1.658-18.074-1.658h-23.216c-1.337 0-2.673.029-3.981.087 4.823.175 9.414.728 13.802 1.571z" fill="#e2e2e2" fill-rule="evenodd"/></g><g><path d="m372.308 129.312c-4.266 0-7.723-3.458-7.723-7.723v-36.602c0-4.265 3.457-7.723 7.723-7.723s7.723 3.458 7.723 7.723v36.602c0 4.265-3.457 7.723-7.723 7.723z" fill="#fd4755"/></g><g><path d="m372.308 54.101c-4.266 0-7.723-3.458-7.723-7.723s3.457-7.767 7.723-7.767 7.723 3.414 7.723 7.679v.087c0 4.266-3.457 7.724-7.723 7.724z" fill="#fd4755"/></g><g><path clip-rule="evenodd" d="m292.286 462.818h-56.05c-13.453 0-24.437 10.998-24.437 24.469 0 .349 0 .727.029 1.077.552 12.977 11.332 23.422 24.408 23.422h56.05c13.453 0 24.437-11.027 24.437-24.498 0-2.182-.291-4.306-.814-6.314-2.79-10.417-12.349-18.156-23.623-18.156z" fill="#9c9c9c" fill-rule="evenodd"/></g><g><path clip-rule="evenodd" d="m282.959 480.973c.552 2.008.843 4.132.843 6.314 0 .669-.029 1.338-.087 1.978-.814 10.329-8.107 18.883-17.783 21.589-2.092.611-4.3.931-6.567.931h32.921c13.453 0 24.437-11.027 24.437-24.498 0-.145 0-.291 0-.466-.029-2.008-.32-3.957-.814-5.848-.058-.204-.116-.407-.174-.611-2.993-10.125-12.407-17.544-23.449-17.544h-32.921c11.245 0 20.804 7.739 23.594 18.155z" fill="#838383" fill-rule="evenodd"/></g><g><path clip-rule="evenodd" d="m446.954 333.693h-34.781v19.232c0 2.299-.145 5.965-.407 9.98h34.781c18.887 0 34.345-15.479 34.345-34.42v-23.916c-2.557 16.439-16.852 29.124-33.938 29.124z" fill="#1785f8" fill-rule="evenodd"/></g></g></svg>